Plot: A detective pairs himself with a famous psychologist on a case involving a traumatized young witness to a crime.

MediaInfo 0.7.61:
General
Unique ID                                : 213119837797619749212965055413385454215 (0xA0556342A63D01319FD09287DB586287)
Complete name                            : D:The.hypnotist.2012.x264.BDRip.1080p.mkv
Format                                   : Matroska
Format version                           : Version 2
File size                                : 7.96 GiB
Duration                                 : 2h 1mn
Overall bit rate mode                    : Variable
Overall bit rate                         : 9 388 Kbps
Encoded date                             : UTC 2013-02-07 23:22:50
Writing application                      : mkvmerge v4.5.0 ('Speed of Light') ╤ü╨▒╨╛╤Ç╨║╨░ ╨╛╤é Feb  1 2011 02:10:32
Writing library                          : libebml v1.2.0 + libmatroska v1.1.0

Video
ID                                       : 1
Format                                   : AVC
Format/Info                              : Advanced Video Codec
Format profile                           : High@L4.1
Format settings, CABAC                   : Yes
Format settings, ReFrames                : 5 frames
Codec ID                                 : V_MPEG4/ISO/AVC
Duration                                 : 2h 1mn
Bit rate mode                            : Variable
Bit rate                                 : 8 807 Kbps
Maximum bit rate                         : 40.0 Mbps
Width                                    : 1 920 pixels
Height                                   : 816 pixels
Display aspect ratio                     : 2.35:1
Frame rate mode                          : Constant
Frame rate                               : 24.000 fps
Color space                              : YUV
Chroma subsampling                       : 4:2:0
Bit depth                                : 8 bits
Scan type                                : Progressive
Bits/(Pixel*Frame)                       : 0.234
Stream size                              : 7.31 GiB (92%)
Title                                    : The hypnotist
Writing library                          : x264 core 129 r2245 bc13772
Encoding settings                        : cabac=1 / ref=5 / deblock=1:0:0 / analyse=0x3:0x133 / me=umh / subme=7 / psy=1 / psy_rd=1.00:0.00 / mixed_ref=1 / me_range=16 / chroma_me=1 / trellis=1 / 8x8dct=1 / cqm=0 / deadzone=21,11 / fast_pskip=0 / chroma_qp_offset=-2 / threads=18 / lookahead_threads=3 / sliced_threads=0 / nr=0 / decimate=1 / interlaced=0 / bluray_compat=0 / constrained_intra=0 / bframes=3 / b_pyramid=2 / b_adapt=2 / b_bias=0 / direct=3 / weightb=1 / open_gop=0 / weightp=2 / keyint=250 / keyint_min=24 / scenecut=40 / intra_refresh=0 / rc_lookahead=50 / rc=2pass / mbtree=1 / bitrate=8807 / ratetol=1.0 / qcomp=0.60 / qpmin=0 / qpmax=69 / qpstep=4 / cplxblur=20.0 / qblur=0.5 / ip_ratio=1.40 / aq=1:1.0
Language                                 : Swedish
Default                                  : Yes
Forced                                   : No

Audio #1
ID                                       : 2
Format                                   : AC-3
Format/Info                              : Audio Coding 3
Mode extension                           : CM (complete main)
Format settings, Endianness              : Big
Codec ID                                 : A_AC3
Duration                                 : 2h 1mn
Bit rate mode                            : Constant
Bit rate                                 : 192 Kbps
Channel(s)                               : 2 channels
Channel positions                        : Front: L R
Sampling rate                            : 48.0 KHz
Bit depth                                : 16 bits
Compression mode                         : Lossy
Stream size                              : 167 MiB (2%)
Title                                    : AC3, 192 Kbps (2 ch) den904
Language                                 : Russian
Default                                  : Yes
Forced                                   : No

Audio #2
ID                                       : 3
Format                                   : AC-3
Format/Info                              : Audio Coding 3
Mode extension                           : CM (complete main)
Format settings, Endianness              : Big
Codec ID                                 : A_AC3
Duration                                 : 2h 1mn
Bit rate mode                            : Constant
Bit rate                                 : 384 Kbps
Channel(s)                               : 6 channels
Channel positions                        : Front: L C R, Side: L R, LFE
Sampling rate                            : 48.0 KHz
Bit depth                                : 16 bits
Compression mode                         : Lossy
Stream size                              : 333 MiB (4%)
Title                                    : AC3, 384 kb/s (6 ch) Original
Language                                 : Swedish
Default                                  : No
Forced                                   : No



Screenshots 
http://img515.imageshack.us/img515/1396/thehypnotist2012x264bdr.png 
http://img823.imageshack.us/img823/1396/thehypnotist2012x264bdr.png 
http://img254.imageshack.us/img254/1396/thehypnotist2012x264bdr.png 
http://img834.imageshack.us/img834/1396/thehypnotist2012x264bdr.png 
http://img706.imageshack.us/img706/1396/thehypnotist2012x264bdr.png 
http://img855.imageshack.us/img855/1396/thehypnotist2012x264bdr.png 
http://img850.imageshack.us/img850/1396/thehypnotist2012x264bdr.png 
http://img716.imageshack.us/img716/1396/thehypnotist2012x264bdr.png 
http://img259.imageshack.us/img259/1396/thehypnotist2012x264bdr.png 
http://img547.imageshack.us/img547/1396/thehypnotist2012x264bdr.png 
http://img827.imageshack.us/img827/1396/thehypnotist2012x264bdr.png 
http://img266.imageshack.us/img266/1396/thehypnotist2012x264bdr.png